<?xml version="1.0" encoding="iso-8859-1"?>
<!-- Generator: Adobe Illustrator 19.0.0, SVG Export Plug-In . SVG Version: 6.00 Build 0)  -->
<svg version="1.1" id="Layer_1" xmlns="http://www.w3.org/2000/svg" xmlns:xlink="http://www.w3.org/1999/xlink" x="0px" y="0px"
	 viewBox="0 0 455 455" style="enable-background:new 0 0 455 455;" xml:space="preserve">
<g>
	<path fill="#ffffff" d="M320.935,279.976c-14.719,0-20.417,3.579-30.762,10.075c-12.945,8.13-30.675,19.265-62.673,19.265
		s-49.728-11.135-62.673-19.265c-10.344-6.497-16.042-10.075-30.762-10.075c-14.71,0-20.398,3.576-30.724,10.068
		c-12.921,8.124-30.613,19.244-62.543,19.272l7.075,70.001h356.443l7.003-70.033c-30.125-0.669-47.135-11.363-59.662-19.24
		C341.333,283.552,335.645,279.976,320.935,279.976z"/>
	<path fill="#ffffff" d="M414.27,197.857c-17.345-46.286-54.335-84.112-101.77-105.003v53.202h-30V82.319c-12.843-3.427-26.225-5.681-40-6.636
		v90.373h-30V75.683c-13.775,0.954-27.157,3.208-40,6.636v63.737h-30V92.854c-47.435,20.891-84.425,58.717-101.77,105.003
		c-22.495,0-40.73,18.235-40.73,40.73s18.188,40.73,40.683,40.73c46.715,0,46.668-29.341,93.383-29.341
		c46.717,0,46.717,29.341,93.435,29.341s46.717-29.341,93.435-29.341c46.715,0,46.668,29.341,93.383,29.341
		c22.494,0,40.683-18.235,40.683-40.73S436.765,197.857,414.27,197.857z"/>
</g>
<g>
</g>
<g>
</g>
<g>
</g>
<g>
</g>
<g>
</g>
<g>
</g>
<g>
</g>
<g>
</g>
<g>
</g>
<g>
</g>
<g>
</g>
<g>
</g>
<g>
</g>
<g>
</g>
<g>
</g>
</svg>
